<svg width="56" height="58" viewBox="0 0 56 58" fill="none" xmlns="http://www.w3.org/2000/svg">
<path fill-rule="evenodd" clip-rule="evenodd" d="M47.4532 2.5H28V0.5H49.5328L49.4995 1.53224C49.4626 2.67683 49.3752 3.83548 49.2414 5H56V6C56 9.75097 55.7408 13.9786 53.9864 17.2816C53.0954 18.959 51.8155 20.4067 49.9996 21.4266C48.3224 22.3685 46.2409 22.916 43.6815 22.9911C40.5798 28.9331 36.4326 33.8271 31.8938 35.6919V38C31.8938 40.5136 33.5966 42.6252 35.8823 44.1718C37.0075 44.9331 38.2255 45.5215 39.3352 45.9176C40.4608 46.3194 41.4089 46.5 42 46.5H45V57.5H28V55.5H43V48.5H28V46.5H35.8409C35.4768 46.2918 35.1155 46.0678 34.7615 45.8282C32.2441 44.1248 29.8938 41.4864 29.8938 38V36.3064C29.2683 36.4334 28.6361 36.5 28 36.5V34.5C28.8467 34.5 29.7052 34.3486 30.5711 34.0535C34.7522 32.6283 38.9628 27.8943 42.1743 21.5485C44.5787 16.7975 46.3571 11.2683 47.1154 5.86113C47.2738 4.7313 47.3875 3.60822 47.4532 2.5ZM44.6979 20.9269C46.4842 20.7595 47.8969 20.3137 49.0202 19.6828C50.4593 18.8745 51.4844 17.7285 52.2201 16.3434C53.5858 13.7723 53.9404 10.4124 53.9927 7H48.9672C48.2071 11.7825 46.702 16.609 44.6979 20.9269Z" fill="#E33131"/>
<path fill-rule="evenodd" clip-rule="evenodd" d="M8.54683 2.5H28V0.5H6.46722L6.50052 1.53224C6.53744 2.67683 6.62479 3.83548 6.75865 5H0V6C0 9.75097 0.259169 13.9786 2.01359 17.2816C2.90456 18.959 4.18449 20.4067 6.00042 21.4266C7.67756 22.3685 9.75906 22.916 12.3185 22.9911C15.4202 28.9331 19.5674 33.8271 24.1062 35.6919V38C24.1062 40.5136 22.4034 42.6252 20.1177 44.1718C18.9925 44.9331 17.7745 45.5215 16.6648 45.9176C15.5392 46.3194 14.5911 46.5 14 46.5H11V57.5H28V55.5H13V48.5H28V46.5H20.1591C20.5232 46.2918 20.8845 46.0678 21.2385 45.8282C23.756 44.1248 26.1062 41.4864 26.1062 38V36.3064C26.7317 36.4334 27.3639 36.5 28 36.5V34.5C27.1533 34.5 26.2948 34.3486 25.4289 34.0535C21.2478 32.6283 17.0372 27.8943 13.8257 21.5485C11.4213 16.7975 9.64288 11.2683 8.88464 5.86113C8.7262 4.7313 8.61251 3.60822 8.54683 2.5ZM11.3021 20.9269C9.5158 20.7595 8.10308 20.3137 6.97979 19.6828C5.5407 18.8745 4.51561 17.7285 3.77988 16.3434C2.4142 13.7723 2.05959 10.4124 2.00732 7H7.03284C7.79287 11.7825 9.29803 16.609 11.3021 20.9269Z" fill="#E33131"/>
<path fill-rule="evenodd" clip-rule="evenodd" d="M30.4863 12.5779L28 7L25.5137 12.5779L19.4405 13.2188L23.977 17.3071L22.7099 23.2812L28 20.23L33.2901 23.2812L32.023 17.3071L36.5595 13.2188L30.4863 12.5779ZM31.8876 14.7369L29.1292 14.4457L28 11.9124L26.8708 14.4457L24.1124 14.7369L26.1728 16.5937L25.5974 19.3069L28 17.9212L30.4026 19.3069L29.8271 16.5937L31.8876 14.7369Z" fill="#E33131"/>
</svg>
