<svg width="64" height="56" viewBox="0 0 64 56" fill="none" xmlns="http://www.w3.org/2000/svg">
<path fill-rule="evenodd" clip-rule="evenodd" d="M24.987 0.839111L23.0019 0.937652L22.2577 12.8453C21.2881 12.6536 20.2986 12.5244 19.3107 12.4644C15.9904 12.2626 12.5633 12.8352 9.93232 14.5772C7.24669 16.3553 5.5 19.2833 5.5 23.5001C5.5 26.5857 6.22209 29.4099 7.42343 32H0V34H8.46889C10.4936 37.4781 13.3425 40.506 16.3366 43.1608C19.0123 45.5333 21.8523 47.649 24.3926 49.5414L24.8866 49.9095C27.582 51.9192 29.8413 53.6357 31.2652 55.1783L32 55.9743L32.7348 55.1783C34.1587 53.6357 36.418 51.9192 39.1134 49.9095L39.6074 49.5414C42.1476 47.649 44.9877 45.5333 47.6634 43.1608C50.6575 40.506 53.5064 37.4781 55.5311 34H63.5V32H56.5765C57.7779 29.4098 58.5 26.5857 58.5 23.5C58.5 19.2833 56.7533 16.3553 54.0677 14.5772C51.4367 12.8352 48.0096 12.2626 44.6893 12.4644C43.0246 12.5656 41.3553 12.863 39.7842 13.3254L39.499 6.9553L37.515 6.82765L36.1184 14.8082C35.8974 14.9266 35.6815 15.0488 35.4711 15.1746C34.0584 16.0195 32.8147 17.0817 32 18.3247C31.1853 17.0817 29.9416 16.0195 28.5289 15.1746C28.1095 14.9238 27.6682 14.6875 27.2089 14.4669L24.987 0.839111ZM22.1317 14.8609C21.1706 14.6577 20.1809 14.521 19.1893 14.4607C16.1346 14.275 13.1867 14.8212 11.0364 16.2448C8.94081 17.6323 7.5 19.9168 7.5 23.5001C7.5 26.58 8.30562 29.3998 9.65127 32H21.0605L22.1317 14.8609ZM25.4091 15.8566C24.9873 15.6851 24.5509 15.5269 24.103 15.3831L22.9395 34H10.8159C12.6286 36.8004 15.0374 39.3359 17.6634 41.6643C20.273 43.9781 23.0493 46.0465 25.6012 47.9478L26.0821 48.3062C28.3478 49.9955 30.4523 51.5814 32 53.0735C33.5477 51.5814 35.6522 49.9955 37.9179 48.3062L38.399 47.9476C40.9508 46.0464 43.7271 43.978 46.3366 41.6643C48.9626 39.3359 51.3713 36.8004 53.1841 34H45.5352L39.1376 43.5963L37.9098 16.1739L32.485 47.1724L30.513 47.1609L25.4091 15.8566ZM54.3487 32C55.6944 29.3998 56.5 26.58 56.5 23.5C56.5 19.9168 55.0592 17.6323 52.9636 16.2448C50.8133 14.8211 47.8654 14.275 44.8107 14.4607C43.116 14.5637 41.427 14.89 39.8767 15.3896L40.8624 37.4037L44.4648 32H54.3487ZM35.6578 17.44C33.9193 18.6855 33 20.1129 33 21.5H31C31 19.9308 29.8235 18.31 27.6153 16.9594L31.5349 40.9996L35.6578 17.44ZM24.2313 13.33C24.5036 13.4104 24.773 13.4957 25.0388 13.5858L24.4435 9.93469L24.2313 13.33Z" fill="#E33131"/>
</svg>
