<svg width="62" height="51" viewBox="0 0 62 51" fill="none" xmlns="http://www.w3.org/2000/svg">
<path fill-rule="evenodd" clip-rule="evenodd" d="M36.1207 47.7435C21.8583 42.8044 0.5 17.5439 0.5 16.541C0.5 17.5824 22.1491 43.4865 36.6057 48.6155C44.7362 51.5001 60.4153 49.3448 60.8726 47.7827C61.2223 46.5885 61.8176 42.6415 60.5173 39.8276C60.0326 38.7788 59.2847 37.8875 58.1626 37.3547C58.8535 37.8589 59.3546 38.5278 59.7111 39.281C59.788 39.4432 59.922 39.7787 59.922 39.7787C60.7509 42.7009 60.3624 44.8441 59.1767 46.3795C59.1705 46.4055 59.1643 46.4308 59.1582 46.4551C59.1518 46.4587 59.1451 46.4623 59.1381 46.4661C59.1308 46.47 59.1232 46.4739 59.1153 46.478L59.1037 46.5441L59.0926 46.6055C59.0473 46.6221 58.9993 46.6391 58.9486 46.6564C54.7062 51.4905 42.0223 49.7872 36.1207 47.7435ZM59.263 46.3867C59.263 46.3867 59.2596 46.3905 59.2492 46.3983C59.2573 46.3906 59.263 46.3867 59.263 46.3867Z" fill="#E33131"/>
<path d="M50.8572 47.9509C45.9669 48.308 40.261 48.119 36.4479 46.7985C33.0306 45.6151 29.1207 43.2043 25.1435 40.1789C21.179 37.1632 17.2044 33.5809 13.6618 30.1098C10.1207 26.6399 7.02328 23.2928 4.81442 20.7548C3.70928 19.485 2.8321 18.4241 2.23533 17.6558C1.97092 17.3154 1.76849 17.0413 1.62767 16.8368C1.72451 16.6941 1.85408 16.5159 2.01699 16.3027C2.38183 15.8252 2.87852 15.2185 3.46475 14.5267L4.00792 15.0467C4.11079 14.9211 4.21715 14.792 4.32676 14.6598L3.06603 13.4529C2.9553 13.5821 2.84689 13.7093 2.74106 13.834C2.27009 14.389 1.85039 14.8564 1.50516 15.2409C0.880787 15.9362 0.5 16.3603 0.5 16.541C0.5 17.5439 21.8583 42.8044 36.1207 47.7435C42.0223 49.7872 54.7062 51.4905 58.9486 46.6564C58.6145 46.7703 58.1618 46.8971 57.5891 47.027C56.8285 47.1995 55.9184 47.3633 54.9002 47.5069C53.6945 47.6895 52.3216 47.844 50.8572 47.9509Z" fill="#E33131"/>
<path d="M36.4479 46.7985C40.261 48.119 45.9669 48.308 50.8572 47.9509C52.3216 47.844 53.6945 47.6895 54.9002 47.5069C53.855 47.6543 52.6959 47.7803 51.4674 47.8722C46.5481 48.2402 40.9367 48.03 37.2744 46.7306C33.9608 45.555 30.0968 43.128 26.0947 40.009C18.5808 34.1532 11.7936 27.2282 5.63282 19.9759C4.67507 18.8484 3.7231 17.7105 2.84315 16.5205C3.14381 16.1179 3.53966 15.6184 4.00792 15.0467L3.46475 14.5267C2.87852 15.2185 2.38183 15.8252 2.01699 16.3027C1.85408 16.5159 1.72451 16.6941 1.62767 16.8368C1.76849 17.0413 1.97092 17.3154 2.23533 17.6558C2.8321 18.4241 3.70928 19.485 4.81442 20.7548C7.02328 23.2928 10.1207 26.6399 13.6618 30.1098C17.2044 33.5809 21.179 37.1632 25.1435 40.1789C29.1207 43.2043 33.0306 45.6151 36.4479 46.7985Z" fill="#E33131"/>
<path fill-rule="evenodd" clip-rule="evenodd" d="M13.063 4.71675L13.0525 4.72837C12.7853 5.02306 12.4619 5.38056 12.096 5.78627C12.5041 7.83785 13.6646 10.6654 15.9328 14.4052C18.8509 19.2163 23.5655 25.4785 30.7397 33.4507C34.744 37.9004 41.2474 40.013 47.1526 40.6174C50.0962 40.9187 52.8621 40.8417 55.0507 40.5051C56.1454 40.3367 57.0847 40.105 57.8249 39.829C57.9148 39.7954 58.0012 39.7614 58.084 39.7271C57.9167 39.5506 57.7325 39.4027 57.5302 39.2818C57.0411 38.9894 56.2821 38.7568 55.0688 38.8431C52.7955 39.0049 50.7083 38.83 48.7318 38.1456C46.7469 37.4584 44.994 36.299 43.3319 34.6601C42.9184 34.2524 42.4845 33.7865 42.0455 33.2804C38.2528 32.7325 34.6419 30.7678 31.8499 28.2646C28.6569 25.4019 26.4332 21.7399 26.3071 18.5346C25.141 18.4781 23.9602 18.0541 22.9002 17.4731C21.7355 16.8347 20.5845 15.9353 19.5664 14.851C17.5477 12.701 15.88 9.63104 15.88 6.1272C15.88 4.43549 15.7701 3.25307 15.5884 2.49278C15.5749 2.43624 15.5616 2.38426 15.5485 2.33656C14.9705 2.72418 14.1564 3.47202 13.0734 4.70496L13.063 4.71675ZM9.96174 8.16642L9.72034 8.43748L9.37744 8.82323C10.9835 11.2273 12.5659 15.3775 12.5659 22.5469L4.32676 14.6598L3.06603 13.4529C2.9553 13.5821 2.84689 13.7093 2.74106 13.834C2.27009 14.389 1.85039 14.8564 1.50516 15.2409C0.880787 15.9362 0.5 16.3603 0.5 16.541C0.5 15.6667 8.88037 6.35265 11.5708 3.38506C16.118 -1.79167 17.88 -0.848485 17.88 6.1272C17.88 11.8548 23.3684 16.541 26.57 16.541C26.9772 16.541 27.339 16.3604 27.6757 16.0855C27.9145 15.8429 28.1434 15.5662 28.371 15.2912C28.6482 14.9562 28.9235 14.6235 29.2122 14.3576C29.7858 13.6996 30.3864 13.2014 31.1437 13.4169C32.1699 13.709 33.4602 14.93 34.8931 17.079C36.0146 18.7611 37.2235 21.0119 38.4616 23.8308C39.982 27.2928 42.0327 30.5704 44.7362 33.236C45.4755 33.965 46.2184 34.5728 46.9813 35.0702C49.0904 36.2324 51.3827 36.6072 54.1958 36.4119C55.9418 36.2906 57.2265 36.6715 58.1626 37.3547C58.8535 37.8589 59.3546 38.5278 59.7111 39.281C59.788 39.4432 59.922 39.7787 59.922 39.7787C60.7509 42.7009 60.3624 44.8441 59.1767 46.3795C59.1705 46.4055 59.1643 46.4308 59.1582 46.4551L59.1381 46.4661L59.1153 46.478L59.0873 46.4923L59.1198 46.4519C59.2403 45.7456 59.348 44.7242 59.3087 43.6385C59.301 43.424 59.2875 43.2069 59.2672 42.9893C59.2527 42.8335 59.2349 42.6801 59.2138 42.5296C59.1164 41.8343 58.9482 41.1999 58.7017 40.6665C58.6866 40.6338 58.6713 40.6016 58.6557 40.5699C58.5016 40.6385 58.3408 40.7038 58.1743 40.7659C57.3528 41.0723 56.3434 41.318 55.2027 41.4935C52.9204 41.8445 50.0685 41.9211 47.0508 41.6122C41.0332 40.9963 34.2391 38.8342 29.9964 34.1196C22.798 26.1206 18.0396 19.8071 15.0778 14.9238C13.0327 11.5518 11.8263 8.83336 11.2783 6.69484C10.8668 7.15311 10.4235 7.64828 9.96174 8.16642ZM59.0873 46.4923C59.0421 46.5478 58.9959 46.6025 58.9486 46.6564C58.6145 46.7703 58.1618 46.8971 57.5891 47.027C56.8285 47.1995 55.9184 47.3633 54.9002 47.5069C55.6939 47.3868 56.4152 47.2545 57.0425 47.1157C57.8375 46.9397 58.449 46.7603 58.8568 46.595C58.9513 46.5567 59.0273 46.5222 59.0873 46.4923ZM9.03393 9.21054C7.52632 10.9124 5.92895 12.7427 4.64748 14.2746L12.0509 21.3617C11.8902 15.107 10.4643 11.4022 9.03393 9.21054ZM38.23 27.8817L38.1697 27.7722C38.145 27.7705 38.1204 27.7685 38.0959 27.7665C37.3608 27.7042 36.5198 27.4941 35.9714 27.3226L36.27 26.3682C36.6322 26.4815 37.121 26.6088 37.6008 26.6926C37.2882 26.0754 36.9875 25.4405 36.6985 24.7894C36.5469 24.79 36.3937 24.7836 36.2423 24.7724C35.4564 24.7144 34.6171 24.5178 34.0812 24.355L34.3719 23.3982C34.8443 23.5417 35.5719 23.7117 36.2428 23.7693C35.8843 22.9841 35.5304 22.252 35.183 21.5727C35.0142 21.5857 34.8407 21.5918 34.6675 21.593C33.7978 21.5987 32.8167 21.479 32.1779 21.368L32.3492 20.3828C32.9526 20.4877 33.8706 20.5982 34.6609 20.593L34.6665 20.593C34.1986 19.7323 33.7468 18.9754 33.3159 18.3198C32.5135 18.522 31.5917 18.6368 30.7027 18.7024C29.4758 18.7928 28.2411 18.7929 27.3228 18.7676C27.5468 21.5333 29.5173 24.8302 32.5174 27.52C34.916 29.6705 37.9113 31.3757 41.0554 32.0813C40.0098 30.7535 38.9994 29.2729 38.23 27.8817ZM29.1351 17.468C29.0222 17.5694 28.8949 17.6756 28.7535 17.7801C29.3498 17.7738 29.9916 17.752 30.6292 17.7051C31.3722 17.6503 32.0839 17.5627 32.7025 17.4346C32.248 16.8154 31.8357 16.3382 31.4742 15.9879C31.2247 15.7463 31.0266 15.5915 30.8813 15.494C30.768 15.6129 30.6182 15.787 30.4103 16.0433C30.3782 16.0829 30.344 16.1254 30.3079 16.1702C30.0152 16.5341 29.5977 17.0528 29.1351 17.468ZM59.263 46.3867C59.263 46.3867 59.2596 46.3905 59.2492 46.3983C59.2573 46.3906 59.263 46.3867 59.263 46.3867Z" fill="#E33131"/>
<path d="M27.9452 36.5788L27.9327 36.5649L13.0654 22.3329C13.0338 15.1084 11.3997 10.8976 9.72034 8.43748L9.37744 8.82323C10.9835 11.2273 12.5659 15.3775 12.5659 22.5469L4.32676 14.6598C4.21715 14.792 4.11079 14.9211 4.00792 15.0467L27.2144 37.2617C31.2371 41.7202 38.5124 44.2467 45.2548 45.0756C48.642 45.492 51.9314 45.485 54.6596 45.0653C56.4713 44.7865 58.0823 44.3187 59.3087 43.6385C59.301 43.424 59.2875 43.2069 59.2672 42.9893C59.2527 42.8335 59.2349 42.6801 59.2138 42.5296C58.1348 43.2347 56.5208 43.7672 54.5076 44.0769C51.8875 44.48 48.6922 44.4906 45.3768 44.083C38.7209 43.2648 31.7272 40.7815 27.9452 36.5788Z" fill="#E33131"/>
</svg>
