<svg width="43" height="44" viewBox="0 0 43 44" fill="none" xmlns="http://www.w3.org/2000/svg">
<path d="M1 9.46984H7.33414V11.057H1V9.46984Z" fill="white"/>
<path fill-rule="evenodd" clip-rule="evenodd" d="M21.0349 37.294C21.0608 37.279 21.0713 37.2444 21.0549 37.2159C21.0385 37.1875 21.0034 37.1793 20.9774 37.1943C20.9515 37.2093 20.941 37.2439 20.9574 37.2723C20.9738 37.3008 21.0089 37.309 21.0349 37.294ZM21.534 38.1605C22.0389 37.8683 22.2119 37.2212 21.9204 36.7151C21.6289 36.209 20.9832 36.0356 20.4783 36.3278C19.9734 36.62 19.8004 37.2671 20.0919 37.7732C20.3834 38.2793 21.0291 38.4527 21.534 38.1605Z" fill="white"/>
<path fill-rule="evenodd" clip-rule="evenodd" d="M20.305 5.17217L11.0162 10.5474L15.853 18.9442L25.1417 13.569L20.305 5.17217ZM8.96922 9.99891L15.3034 20.9953L27.1887 14.1175L20.8545 3.12109L8.96922 9.99891Z" fill="white"/>
<path d="M24.5217 32.7662L40.064 23.7721L41.1197 25.6048L25.5774 34.5989L24.5217 32.7662Z" fill="white"/>
<path d="M0.690201 1.97487L2.51871 0.916748L20.1954 31.6043L18.3669 32.6624L0.690201 1.97487Z" fill="white"/>
<path fill-rule="evenodd" clip-rule="evenodd" d="M23.4245 41.4426C25.7356 40.1052 26.5298 37.1412 25.1934 34.8211C23.8569 32.501 20.8989 31.7084 18.5878 33.0458C16.2766 34.3832 15.4825 37.3472 16.8189 39.6673C18.1553 41.9874 21.1134 42.78 23.4245 41.4426ZM24.1732 42.7424C27.2028 40.9892 28.2408 37.1064 26.4917 34.0698C24.7425 31.0333 20.8686 29.9929 17.8391 31.746C14.8095 33.4992 13.7715 37.382 15.5206 40.4186C17.2697 43.4551 21.1436 44.4955 24.1732 42.7424Z" fill="white"/>
<path d="M17.2026 21.118L15.8312 21.9116L20.5351 30.0778C21.1936 30.0518 21.8422 30.1264 22.4556 30.2963L22.481 30.2816L17.2026 21.118Z" fill="white"/>
<path d="M35.0306 10.8013L36.402 10.0077L42.2083 20.0877L40.8369 20.8813L35.0306 10.8013Z" fill="white"/>
<path d="M35.9449 10.2722L36.7366 11.6468L17.5373 22.7571L16.7455 21.3825L35.9449 10.2722Z" fill="white"/>
<path d="M25.3685 31.6653L43 21.4622L42.2083 20.0877L23.7113 30.7915C24.2968 30.9966 24.8563 31.2899 25.3685 31.6653Z" fill="white"/>
</svg>
