<svg width="44" height="39" viewBox="0 0 44 39" fill="none" xmlns="http://www.w3.org/2000/svg">
<path fill-rule="evenodd" clip-rule="evenodd" d="M33.4783 17H44V33.1528H40.1206V38.2404L34.6956 33.1528H22.9565V26.5H24.8696V31.1528H35.4279L38.2075 33.7596V31.1528H42.087V19H33.4783V17Z" fill="white"/>
<path fill-rule="evenodd" clip-rule="evenodd" d="M13.9681 26.7331H33.4783V0H0V26.7331H6.78898V34L13.9681 26.7331ZM8.78898 29.1297L13.1325 24.7331H31.4783V2H2V24.7331H8.78898V29.1297Z" fill="white"/>
<path d="M7.65217 9H29.6522V11H7.65217V9Z" fill="white"/>
<path d="M7.65217 13H29.6522V15H7.65217V13Z" fill="white"/>
<path d="M7.65217 17H29.6522V19H7.65217V17Z" fill="white"/>
</svg>
