<svg width="40" height="44" viewBox="0 0 40 44" fill="none" xmlns="http://www.w3.org/2000/svg">
<path fill-rule="evenodd" clip-rule="evenodd" d="M21 9V22H19V9H21Z" fill="white"/>
<path d="M33 9.94971L34.4142 8.53549L35.8284 9.94971L34.4142 11.3639L33 9.94971Z" fill="white"/>
<path d="M33 7.12134L35.1213 5.00002L39.364 9.24266L37.2426 11.364L33 7.12134Z" fill="white"/>
<path fill-rule="evenodd" clip-rule="evenodd" d="M22 0.000732422V5.00073H18V0.000732597L22 0.000732422Z" fill="white"/>
<path fill-rule="evenodd" clip-rule="evenodd" d="M20 42C29.9411 42 38 33.9411 38 24C38 14.0589 29.9411 6 20 6C10.0589 6 2 14.0589 2 24C2 33.9411 10.0589 42 20 42ZM20 44C31.0457 44 40 35.0457 40 24C40 12.9543 31.0457 4 20 4C8.9543 4 0 12.9543 0 24C0 35.0457 8.9543 44 20 44Z" fill="white"/>
<path d="M23 24C23 25.6569 21.6569 27 20 27C18.3431 27 17 25.6569 17 24C17 22.3431 18.3431 21 20 21C21.6569 21 23 22.3431 23 24Z" fill="white"/>
</svg>
